<?xml version="1.0" standalone="no"?>
<!DOCTYPE svg PUBLIC "-//W3C//DTD SVG 20010904//EN"
 "http://www.w3.org/TR/2001/REC-SVG-20010904/DTD/svg10.dtd">
<svg version="1.0" xmlns="http://www.w3.org/2000/svg"
 width="515.000000pt" height="110.000000pt" viewBox="0 0 515.000000 110.000000"
 preserveAspectRatio="xMidYMid meet">

<g transform="translate(0.000000,110.000000) scale(0.100000,-0.100000)"
fill="#000000" stroke="none">
<path d="M0 550 l0 -550 2575 0 2575 0 0 550 0 550 -2575 0 -2575 0 0 -550z
m1545 468 c3 -13 4 -234 3 -493 l-3 -470 -740 0 -740 0 -3 493 -2 492 740 0
740 0 5 -22z m598 -348 c27 -30 29 -38 24 -84 -4 -36 -2 -57 8 -70 33 -44 13
-125 -37 -156 -38 -23 -146 -28 -166 -8 -8 8 -12 61 -12 175 0 188 -1 186 94
180 52 -3 62 -7 89 -37z m255 31 c18 -11 132 -290 132 -323 0 -51 -69 -48 -85
3 -5 16 -16 19 -68 19 -58 0 -63 -2 -79 -30 -19 -33 -48 -39 -72 -15 -18 18
-20 10 52 190 63 159 80 182 120 156z m347 -7 c65 -31 81 -119 33 -184 l-20
-28 26 -44 c30 -51 32 -70 11 -88 -28 -23 -59 -3 -92 57 -39 73 -53 78 -53 18
0 -55 -14 -85 -40 -85 -44 0 -50 22 -50 181 0 136 2 151 20 169 25 25 116 27
165 4z m288 -24 c27 -30 29 -37 23 -85 -4 -37 -2 -57 9 -71 19 -26 19 -89 -1
-120 -10 -14 -30 -32 -45 -40 -34 -17 -140 -19 -157 -2 -8 8 -12 61 -12 175 0
188 -1 186 94 180 52 -3 62 -7 89 -37z m278 30 c21 -12 25 -50 7 -68 -7 -7
-34 -12 -60 -12 -45 0 -48 -2 -48 -25 0 -23 3 -25 48 -25 52 0 72 -12 72 -45
0 -33 -20 -45 -72 -45 -44 0 -48 -2 -48 -25 0 -18 7 -26 25 -31 14 -3 31 -4
37 -1 28 10 58 -12 58 -42 0 -36 -12 -41 -105 -41 -106 0 -105 -1 -105 181 0
183 3 189 106 189 36 0 74 -5 85 -10z m271 -27 c41 -41 44 -106 8 -155 l-24
-32 27 -48 c31 -55 33 -71 12 -88 -28 -23 -59 -3 -95 60 -18 33 -37 60 -42 60
-4 0 -8 -24 -8 -53 0 -29 -5 -58 -12 -65 -18 -18 -56 -14 -68 7 -5 11 -10 85
-10 167 0 185 1 188 107 182 66 -3 76 -6 105 -35z m375 17 c36 -22 52 -62 33
-85 -16 -19 -54 -19 -70 0 -18 21 -40 19 -40 -5 0 -13 14 -25 45 -39 48 -21
85 -69 85 -111 0 -32 -32 -85 -62 -101 -51 -28 -142 0 -154 48 -13 52 36 82
71 43 22 -24 41 -26 49 -4 10 26 7 30 -35 49 -84 38 -115 119 -68 179 38 49
93 58 146 26z m157 4 c11 -10 16 -34 16 -70 l0 -54 50 0 50 0 0 54 c0 76 31
106 72 69 16 -14 18 -33 18 -165 0 -84 -5 -158 -10 -169 -12 -22 -52 -25 -68
-6 -6 7 -12 37 -14 67 l-3 55 -45 0 -45 0 -3 -55 c-3 -59 -14 -80 -43 -80 -43
0 -49 23 -49 178 0 117 3 152 16 170 18 26 37 28 58 6z m502 0 c18 -9 49 -33
68 -54 88 -97 37 -260 -93 -299 -116 -34 -242 65 -241 190 1 62 71 153 132
171 42 11 100 8 134 -8z m309 2 c100 -42 77 -198 -32 -215 -38 -6 -38 -6 -43
-61 -3 -30 -9 -61 -13 -67 -13 -20 -55 -15 -67 6 -5 11 -10 85 -10 170 0 144
1 151 22 165 28 20 98 21 143 2z"/>
<path d="M389 732 c-79 -4 -81 -11 -77 -250 3 -177 4 -192 23 -206 27 -21 280
-22 328 -2 74 31 112 115 84 186 -13 35 -13 43 1 82 13 38 14 49 1 87 -9 28
-27 54 -49 72 -33 26 -42 28 -145 31 -60 2 -135 2 -166 0z m11 -32 c13 -23 -6
-60 -30 -60 -35 0 -52 44 -28 68 18 18 46 14 58 -8z m277 0 c56 -34 82 -120
49 -165 -13 -18 -15 -18 -40 -2 -17 12 -26 27 -26 45 -1 54 -17 62 -128 62
-100 0 -102 0 -108 25 -13 51 -4 55 113 55 89 0 114 -3 140 -20z m-274 -79 c4
0 7 -12 7 -25 0 -28 -3 -31 -47 -41 -32 -6 -33 -6 -33 28 0 47 3 49 73 38z
m229 -9 c5 -5 8 -18 6 -28 -3 -17 -14 -19 -108 -19 -89 0 -105 2 -108 16 -6
34 21 44 112 42 49 0 93 -6 98 -11z m-231 -93 c9 -18 7 -25 -10 -43 -17 -16
-25 -18 -39 -10 -24 16 -27 45 -6 61 25 19 42 16 55 -8z m271 3 c55 -36 -3
-62 -142 -62 -105 0 -109 2 -102 52 l4 28 107 0 c85 0 111 -4 133 -18z m58
-61 c16 -31 12 -83 -10 -119 -31 -50 -73 -63 -193 -60 l-102 3 -1 27 c-1 15 2
31 5 36 3 6 52 12 109 13 112 4 122 9 122 64 0 21 7 34 23 41 32 16 35 16 47
-5z m-322 -49 c3 -22 -1 -25 -50 -36 -26 -6 -28 -4 -28 27 0 43 4 46 43 38 23
-5 33 -13 35 -29z m227 -2 c0 -25 -1 -25 -99 -28 -55 -1 -103 1 -109 7 -5 5
-6 19 -2 30 6 21 12 22 108 19 101 -3 102 -3 102 -28z m-241 -66 c9 -8 16 -19
16 -24 0 -9 -28 -40 -36 -40 -17 0 -44 23 -44 38 0 38 37 53 64 26z"/>
<path d="M1001 709 c-73 -43 -96 -103 -65 -170 26 -59 108 -99 205 -99 64 0
91 -18 68 -46 -10 -12 -29 -14 -98 -11 -47 3 -102 8 -123 12 -32 6 -38 4 -54
-20 -16 -25 -16 -30 -3 -54 17 -30 103 -59 180 -60 63 -1 144 25 182 59 29 26
32 33 32 89 -1 45 -5 65 -20 81 -34 37 -86 58 -168 65 -89 8 -122 28 -88 51
25 18 103 20 160 4 53 -14 87 -7 96 21 21 67 -39 99 -180 98 -71 0 -97 -5
-124 -20z m197 3 c8 -6 10 -19 6 -40 -6 -32 -7 -32 -71 -32 -69 0 -113 -19
-113 -50 0 -30 24 -40 116 -51 127 -14 174 -49 173 -129 0 -25 -5 -52 -12 -60
-41 -53 -131 -78 -227 -65 -49 7 -49 7 -43 38 3 18 7 34 9 35 1 2 38 5 82 6
82 1 112 13 112 46 0 30 -27 42 -116 51 -121 12 -173 50 -174 124 0 84 65 132
185 134 33 0 66 -3 73 -7z m82 -26 c6 -8 10 -25 8 -38 -4 -31 -48 -37 -66 -8
-10 17 -9 23 8 40 24 24 34 25 50 6z m-269 -322 c19 -23 -1 -49 -37 -49 -23 0
-30 5 -32 24 -6 39 43 56 69 25z"/>
<path d="M2046 611 c-7 -11 3 -41 13 -41 14 0 29 23 24 36 -6 16 -29 19 -37 5z"/>
<path d="M2040 466 c0 -13 7 -29 16 -36 13 -11 19 -10 36 8 18 17 19 23 8 36
-7 9 -23 16 -36 16 -19 0 -24 -5 -24 -24z"/>
<path d="M2361 523 c-8 -16 -7 -24 4 -33 12 -10 16 -9 21 3 3 9 1 24 -4 33 -9
16 -10 16 -21 -3z"/>
<path d="M2652 593 c3 -32 25 -40 52 -20 28 20 14 47 -24 47 -28 0 -31 -3 -28
-27z"/>
<path d="M2933 604 c-7 -18 11 -39 26 -30 17 11 13 46 -4 46 -9 0 -18 -7 -22
-16z"/>
<path d="M2930 467 c0 -34 21 -50 44 -34 26 19 17 51 -17 55 -23 3 -27 0 -27
-21z"/>
<path d="M3462 593 c4 -33 37 -43 57 -19 20 24 6 46 -29 46 -28 0 -31 -3 -28
-27z"/>
<path d="M4475 597 c-18 -15 -28 -36 -32 -64 -5 -39 -2 -46 30 -78 39 -39 70
-44 118 -20 54 28 65 104 23 154 -22 26 -33 31 -69 31 -31 0 -52 -7 -70 -23z"/>
<path d="M4850 596 c0 -29 11 -39 35 -30 24 10 15 48 -12 52 -19 3 -23 -1 -23
-22z"/>
</g>
</svg>
